<?xml version="1.0" encoding="utf-8"?>
<!-- Generator: Adobe Illustrator 19.2.1, SVG Export Plug-In . SVG Version: 6.00 Build 0)  -->
<svg version="1.1" id="layer" xmlns="http://www.w3.org/2000/svg" xmlns:xlink="http://www.w3.org/1999/xlink" x="0px" y="0px"
	 viewBox="0 0 652 652" style="enable-background:new 0 0 652 652;" xml:space="preserve">
<style type="text/css">
	.st0{fill:#231815;}
	.st1{fill:#BECB2B;}
	.st2{fill:#509236;}
	.st3{fill:#7D5A41;}
	.st4{fill:#9D9FA2;}
	.st5{fill:#FFFFFF;}
</style>
<g>
	<path d="M139.2,510.7c-0.7-1.3-1.8-1.9-3.4-1.9c-1.2,0-2.2,0.3-2.9,0.9c-0.7,0.6-1.3,1.7-1.6,3.4c-0.4,1.6-0.6,3.8-0.7,6.5
		c-0.1,2.7-0.2,6.2-0.2,10.3c0,4.1,0.1,7.6,0.2,10.3c0.1,2.7,0.4,4.9,0.7,6.5c0.4,1.6,0.9,2.7,1.6,3.4c0.7,0.6,1.7,0.9,2.9,0.9
		c1,0,1.8-0.2,2.4-0.7c0.6-0.5,1.1-1.3,1.5-2.4c0.3-1.2,0.6-2.7,0.7-4.6s0.2-4.3,0.2-7.3h15.5v4.6c0,4.3-0.6,7.8-1.7,10.6
		c-1.1,2.8-2.7,4.9-4.6,6.5c-1.9,1.6-4.1,2.6-6.5,3.2c-2.4,0.5-5,0.8-7.5,0.8c-4.5,0-8.2-0.5-11-1.6c-2.9-1.1-5.1-2.9-6.7-5.5
		c-1.6-2.6-2.7-5.9-3.3-9.9c-0.6-4-0.9-8.9-0.9-14.7c0-5.9,0.4-10.8,1.1-14.9c0.7-4.1,1.9-7.4,3.7-9.9c1.7-2.5,4-4.3,6.8-5.5
		c2.8-1.1,6.3-1.7,10.4-1.7c3.6,0,6.7,0.5,9.2,1.4c2.5,0.9,4.6,2.2,6.2,3.9c1.6,1.7,2.7,3.7,3.4,6.1c0.7,2.4,1.1,5,1.1,8v3.9h-15.5
		v-3.4C140.2,514.3,139.9,512,139.2,510.7"/>
	<path d="M181.9,558.2c-0.1-0.9-0.2-1.8-0.3-2.8h-0.2c-0.9,2.1-2.2,3.6-4.1,4.6c-1.9,1-4,1.5-6.4,1.5c-2.4,0-4.3-0.3-6-0.9
		c-1.6-0.6-3-1.5-4-2.7c-1-1.2-1.8-2.6-2.2-4.3c-0.5-1.7-0.7-3.5-0.7-5.5c0-2.2,0.2-4.1,0.6-5.7c0.4-1.6,1.1-3,2.1-4.2
		c1-1.2,2.3-2.2,3.9-3c1.7-0.8,3.7-1.5,6.2-2.1l6.1-1.5c1.7-0.4,2.8-1,3.5-1.8c0.7-0.8,1-1.9,1-3.3c0-2.9-1.3-4.3-3.9-4.3
		c-1.5,0-2.6,0.4-3.3,1.2c-0.7,0.8-1,2.5-1.1,4.9h-13.5c0-3.4,0.6-6.1,1.8-8.1c1.2-2,2.7-3.6,4.5-4.7c1.8-1.1,3.7-1.9,5.8-2.2
		c2.1-0.4,4-0.6,5.8-0.6c2.7,0,5.2,0.2,7.5,0.6c2.3,0.4,4.2,1.2,5.9,2.3c1.6,1.1,2.9,2.6,3.8,4.6c0.9,1.9,1.3,4.4,1.3,7.4v22.7
		c0,2.2,0.1,4.1,0.3,5.8c0.2,1.7,0.6,3.1,1.2,4.3h-15C182.2,559.9,182,559,181.9,558.2 M180.4,549.5c0.7-1.3,1.1-3.2,1.1-5.7v-5.6
		h-0.2c-0.5,0.6-1.2,1-2.1,1.2c-1,0.1-2,0.5-3.1,1c-1.2,0.6-2,1.3-2.5,2.3c-0.5,0.9-0.7,2.2-0.7,3.7c0,1.5,0.3,2.8,1,3.7
		c0.7,0.9,1.6,1.4,2.8,1.4C178.4,551.4,179.7,550.8,180.4,549.5"/>
	<rect x="201.2" y="499.3" width="15.5" height="61.4"/>
	<rect x="221.5" y="499.3" width="15.5" height="61.4"/>
	<path d="M264.8,514.7v15.1h0.1c0.6-1.8,1.6-3.1,2.9-3.8c1.3-0.7,2.8-1.1,4.4-1.1c1.7,0,3.2,0.3,4.5,0.9c1.3,0.6,2.4,1.5,3.3,2.9
		c0.9,1.3,1.6,3.2,2.1,5.4c0.5,2.3,0.7,5.1,0.7,8.4c0,6.5-0.8,11.3-2.3,14.3c-1.5,3.1-4.2,4.6-8.1,4.6c-2.1,0-3.7-0.4-5-1.3
		c-1.2-0.9-2.2-2.3-3-4.2h-0.1v4.8h-11.2v-46H264.8z M264.9,547.9c0.1,1.2,0.2,2.2,0.5,3c0.2,0.7,0.6,1.3,1,1.6
		c0.4,0.3,1,0.4,1.6,0.4c0.7,0,1.2-0.1,1.7-0.4c0.4-0.3,0.8-0.8,1-1.6c0.2-0.7,0.4-1.7,0.5-3c0.1-1.3,0.1-2.8,0.1-4.6
		c0-1.9,0-3.5-0.1-4.7c-0.1-1.2-0.2-2.2-0.5-3c-0.2-0.7-0.6-1.3-1-1.6c-0.4-0.3-1-0.5-1.7-0.5c-0.6,0-1.2,0.1-1.6,0.5
		c-0.4,0.3-0.8,0.8-1,1.6c-0.2,0.7-0.4,1.8-0.5,3c-0.1,1.2-0.1,2.8-0.1,4.7C264.8,545.1,264.8,546.6,264.9,547.9"/>
	<path d="M296.1,549.7c0,1.9,0.3,3.1,1,3.8c0.6,0.6,1.4,0.9,2.2,0.9c1,0,1.8-0.4,2.4-1.3c0.6-0.8,0.9-2.4,0.9-4.8h10.5
		c-0.1,4.3-1.2,7.5-3.3,9.7c-2.1,2.2-5.6,3.3-10.4,3.3c-2.8,0-5.1-0.3-7-0.9c-1.9-0.6-3.4-1.7-4.6-3.1c-1.2-1.4-2-3.3-2.5-5.6
		c-0.5-2.3-0.7-5.1-0.7-8.4c0-3.3,0.3-6.2,0.8-8.5c0.6-2.3,1.4-4.2,2.6-5.7c1.2-1.5,2.7-2.5,4.6-3.2c1.9-0.7,4.1-1,6.7-1
		c2.3,0,4.3,0.3,6.1,0.8c1.7,0.6,3.2,1.5,4.4,2.8c1.2,1.3,2.1,3,2.6,5.1c0.6,2.1,0.9,4.8,0.9,8v3.5h-17.2V549.7z M301.7,533.3
		c-0.4-0.9-1.3-1.3-2.5-1.3c-1.2,0-2,0.4-2.5,1.3c-0.4,0.9-0.7,2.2-0.7,4.1v1.6h6.3v-1.6C302.4,535.5,302.2,534.1,301.7,533.3"/>
	<path d="M313.2,533.6v-7.8h4v-2.5c0-1.8,0.2-3.3,0.5-4.5c0.4-1.2,1-2.2,1.8-2.9c0.8-0.7,1.9-1.3,3.3-1.6c1.4-0.3,3.1-0.5,5.1-0.5
		c0.9,0,1.8,0,2.7,0.1c1,0.1,1.9,0.2,2.8,0.3v7.3c-0.3-0.1-0.6-0.1-0.9-0.2c-0.3,0-0.6,0-1.1,0c-0.7,0-1.4,0.2-1.9,0.6
		c-0.6,0.4-0.8,1-0.8,1.9v2.1h4.7v7.8h-4.7v27.1h-11.6v-27.1H313.2z"/>
	<path d="M363,549.9c-0.3,2.2-1,4.1-2,5.8c-1,1.7-2.5,3-4.5,4.1c-2,1-4.6,1.5-7.8,1.5c-3.4,0-6.1-0.5-8-1.4c-2-0.9-3.5-2.2-4.4-3.9
		c-1-1.7-1.6-3.6-1.9-5.8c-0.3-2.2-0.4-4.6-0.4-7.1c0-2.3,0.2-4.5,0.5-6.7c0.3-2.2,1-4.1,2-5.9c1-1.7,2.5-3.1,4.5-4.2
		c1.9-1,4.6-1.6,7.8-1.6c3.4,0,6.1,0.5,8,1.5c2,1,3.5,2.3,4.4,4c1,1.7,1.6,3.6,1.9,5.8c0.3,2.2,0.4,4.6,0.4,7.1
		C363.5,545.5,363.3,547.8,363,549.9 M345.6,548.6c0.1,1.4,0.3,2.5,0.5,3.3c0.3,0.8,0.6,1.4,1,1.7c0.4,0.3,0.9,0.4,1.6,0.4
		c0.6,0,1.2-0.1,1.6-0.4c0.4-0.3,0.7-0.9,1-1.7c0.2-0.8,0.4-1.9,0.5-3.3c0.1-1.4,0.1-3.2,0.1-5.4c0-2.2,0-4-0.1-5.4
		c-0.1-1.4-0.2-2.5-0.5-3.3c-0.2-0.8-0.6-1.4-1-1.7c-0.4-0.3-1-0.4-1.6-0.4c-0.6,0-1.2,0.1-1.6,0.4c-0.4,0.3-0.7,0.9-1,1.7
		c-0.3,0.8-0.4,1.9-0.5,3.3c-0.1,1.4-0.1,3.2-0.1,5.4C345.5,545.4,345.5,547.2,345.6,548.6"/>
	<path d="M377,525.8v5.5h0.1c0.6-2.1,1.7-3.7,3.1-4.8c1.4-1.1,3-1.6,4.7-1.6h1.9v10.8c-0.5-0.1-1-0.1-1.5-0.2
		c-0.5,0-0.9-0.1-1.4-0.1c-2.1,0-3.7,0.4-4.8,1.4c-1.1,0.9-1.7,2.5-1.7,4.8v19h-11.6v-34.9H377z"/>
	<path d="M396.5,549.7c0,1.9,0.3,3.1,1,3.8c0.6,0.6,1.4,0.9,2.2,0.9c1,0,1.8-0.4,2.4-1.3c0.6-0.8,0.9-2.4,0.9-4.8h10.5
		c-0.1,4.3-1.2,7.5-3.3,9.7c-2.1,2.2-5.6,3.3-10.4,3.3c-2.8,0-5.1-0.3-7-0.9c-1.9-0.6-3.4-1.7-4.6-3.1c-1.2-1.4-2-3.3-2.5-5.6
		c-0.5-2.3-0.7-5.1-0.7-8.4c0-3.3,0.3-6.2,0.8-8.5c0.6-2.3,1.4-4.2,2.6-5.7c1.2-1.5,2.7-2.5,4.6-3.2c1.9-0.7,4.1-1,6.7-1
		c2.3,0,4.3,0.3,6.1,0.8c1.7,0.6,3.2,1.5,4.4,2.8c1.2,1.3,2.1,3,2.6,5.1c0.6,2.1,0.9,4.8,0.9,8v3.5h-17.2V549.7z M402.2,533.3
		c-0.4-0.9-1.3-1.3-2.5-1.3c-1.2,0-2,0.4-2.5,1.3c-0.4,0.9-0.7,2.2-0.7,4.1v1.6h6.3v-1.6C402.8,535.5,402.6,534.1,402.2,533.3"/>
	<path d="M429.7,563.7c0.4,0,0.9,0.1,1.3,0.1c0.7,0,1.3-0.1,1.8-0.3c0.5-0.2,0.9-0.5,1.2-0.7c0.3-0.3,0.5-0.6,0.6-0.9
		c0.1-0.3,0.2-0.5,0.2-0.7c0-0.3-0.1-0.6-0.2-1c-0.1-0.4-0.2-0.9-0.4-1.3l-9.2-32.9h11.9l3.5,23.5h0.1l3.4-23.5h11.6l-9.3,35.8
		c-0.5,2-1.1,3.7-1.8,5c-0.7,1.3-1.5,2.4-2.4,3.1c-0.9,0.8-2,1.3-3.2,1.6c-1.2,0.3-2.6,0.4-4.1,0.4c-1.3,0-2.4,0-3.4-0.1
		c-1.1,0-2.1-0.1-3.1-0.2v-8.1C428.9,563.6,429.3,563.6,429.7,563.7"/>
	<path d="M483.3,549.9c-0.3,2.2-1,4.1-2,5.8s-2.5,3-4.5,4.1c-2,1-4.6,1.5-7.8,1.5c-3.4,0-6.1-0.5-8-1.4c-2-0.9-3.5-2.2-4.4-3.9
		c-1-1.7-1.6-3.6-1.9-5.8c-0.3-2.2-0.4-4.6-0.4-7.1c0-2.3,0.2-4.5,0.5-6.7c0.3-2.2,1-4.1,2-5.9c1-1.7,2.5-3.1,4.5-4.2
		c1.9-1,4.6-1.6,7.8-1.6c3.4,0,6.1,0.5,8,1.5c2,1,3.5,2.3,4.4,4c1,1.7,1.6,3.6,1.9,5.8c0.3,2.2,0.4,4.6,0.4,7.1
		C483.8,545.5,483.6,547.8,483.3,549.9 M465.9,548.6c0.1,1.4,0.3,2.5,0.5,3.3c0.3,0.8,0.6,1.4,1,1.7c0.4,0.3,0.9,0.4,1.6,0.4
		c0.6,0,1.2-0.1,1.6-0.4c0.4-0.3,0.7-0.9,1-1.7c0.2-0.8,0.4-1.9,0.5-3.3c0.1-1.4,0.1-3.2,0.1-5.4c0-2.2,0-4-0.1-5.4
		c-0.1-1.4-0.2-2.5-0.5-3.3c-0.2-0.8-0.6-1.4-1-1.7c-0.4-0.3-1-0.4-1.6-0.4c-0.6,0-1.2,0.1-1.6,0.4c-0.4,0.3-0.7,0.9-1,1.7
		c-0.3,0.8-0.4,1.9-0.5,3.3c-0.1,1.4-0.1,3.2-0.1,5.4C465.8,545.4,465.8,547.2,465.9,548.6"/>
	<path d="M498,525.8v23c0,1.5,0.2,2.5,0.6,3.2c0.4,0.7,1.2,1,2.2,1c1,0,1.8-0.3,2.2-1c0.4-0.6,0.6-1.7,0.6-3.2v-23h11.6v34.9h-11.2
		l0-4.2h-0.2c-1.5,3.3-4.3,4.9-8.4,4.9c-1.3,0-2.5-0.1-3.6-0.3c-1.1-0.2-2.1-0.7-2.9-1.4c-0.8-0.7-1.5-1.7-1.9-2.9
		c-0.5-1.2-0.7-2.8-0.7-4.6v-26.3H498z"/>
	<path d="M556.7,514.7v46h-11.2v-4.8h-0.1c-0.7,1.9-1.7,3.3-3,4.2c-1.3,0.9-2.9,1.3-5,1.3c-3.9,0-6.6-1.5-8.1-4.6
		c-1.5-3.1-2.3-7.8-2.3-14.3c0-3.3,0.3-6.1,0.8-8.3c0.5-2.2,1.2-4,2.2-5.4c0.9-1.4,2-2.4,3.4-3c1.3-0.6,2.8-0.9,4.4-0.9
		c1.6,0,3.1,0.4,4.4,1.1c1.3,0.7,2.3,2,2.9,3.8h0.1v-15.1H556.7z M538.8,547.9c0.1,1.2,0.2,2.2,0.5,3c0.2,0.7,0.6,1.3,1,1.6
		c0.4,0.3,1,0.4,1.7,0.4c0.6,0,1.2-0.1,1.6-0.4c0.4-0.3,0.8-0.8,1-1.6c0.2-0.7,0.4-1.7,0.5-3c0.1-1.3,0.1-2.8,0.1-4.6
		c0-1.9,0-3.5-0.1-4.7c-0.1-1.2-0.2-2.2-0.5-3c-0.2-0.7-0.6-1.3-1-1.6c-0.4-0.3-1-0.5-1.6-0.5c-0.7,0-1.2,0.1-1.7,0.5
		c-0.4,0.3-0.8,0.8-1,1.6c-0.2,0.7-0.4,1.8-0.5,3c-0.1,1.2-0.1,2.8-0.1,4.7C538.6,545.1,538.7,546.6,538.8,547.9"/>
	<path d="M572.4,523.3h-11.6v-8.6h11.6V523.3z M572.4,560.7h-11.6v-34.9h11.6V560.7z"/>
	<path d="M604.9,525.8v34.3c0,2.3-0.4,4.2-1.1,5.8c-0.7,1.6-1.8,2.9-3.1,3.8c-1.3,0.9-2.9,1.6-4.6,2c-1.8,0.4-3.7,0.6-5.7,0.6
		c-1.9,0-3.6-0.1-5.2-0.4c-1.6-0.3-3.1-0.8-4.3-1.5c-1.2-0.7-2.2-1.7-2.9-3c-0.7-1.3-1.1-2.9-1.1-4.9h10.5c0,0.9,0.3,1.5,0.8,2
		c0.5,0.5,1.2,0.7,2.1,0.7c0.4,0,0.9,0,1.3-0.1c0.4-0.1,0.8-0.3,1.1-0.6c0.3-0.3,0.6-0.7,0.8-1.3c0.2-0.6,0.3-1.3,0.3-2.3v-6.5h-0.1
		c-0.7,2-1.8,3.4-3.3,4.1c-1.5,0.7-3,1.1-4.6,1.1c-1.2,0-2.3-0.2-3.5-0.6c-1.2-0.4-2.3-1.3-3.3-2.5c-1-1.3-1.8-3-2.4-5.3
		c-0.6-2.3-0.9-5.2-0.9-8.8c0-3.4,0.2-6.2,0.7-8.4c0.5-2.3,1.2-4.1,2.1-5.4c0.9-1.3,2.1-2.3,3.4-2.9c1.3-0.6,2.8-0.9,4.5-0.9
		c1.6,0,3.1,0.4,4.6,1.3c1.4,0.9,2.4,2.4,3.1,4.5h0.1v-4.9H604.9z M587.4,546.8c0.1,1.1,0.4,2,0.6,2.7c0.3,0.6,0.6,1.1,1,1.3
		c0.4,0.2,0.9,0.3,1.4,0.3c0.5,0,1-0.1,1.4-0.3c0.4-0.2,0.7-0.6,1-1.3c0.3-0.6,0.5-1.5,0.6-2.7c0.1-1.1,0.2-2.6,0.2-4.5
		c0-1.8-0.1-3.3-0.2-4.4c-0.1-1.1-0.3-2-0.6-2.7c-0.3-0.6-0.6-1.1-1-1.3c-0.4-0.2-0.9-0.4-1.4-0.4c-0.6,0-1,0.1-1.4,0.4
		c-0.4,0.2-0.7,0.7-1,1.3c-0.3,0.6-0.5,1.5-0.6,2.7c-0.1,1.1-0.2,2.6-0.2,4.4C587.2,544.2,587.2,545.6,587.4,546.8"/>
	<rect x="607.9" y="549.2" width="9.8" height="11.5"/>
	<polygon points="33.9,447.1 33.9,462.7 34,462.7 41.9,447.1 53.1,447.1 42.9,464.9 54.4,487.8 42.3,487.8 36.1,473.6 33.9,477 
		33.9,487.8 23.3,487.8 23.3,447.1 	"/>
	<path d="M63.7,457v3.7h0.1c1.3-3,3.8-4.5,7.4-4.5c1.1,0,2.2,0.1,3.1,0.4c1,0.2,1.8,0.7,2.5,1.3c0.7,0.7,1.3,1.5,1.7,2.6
		c0.4,1.1,0.6,2.4,0.6,4.1v23.2H69v-20.4c0-1.3-0.2-2.2-0.6-2.8c-0.4-0.6-1-0.9-1.9-0.9c-0.9,0-1.6,0.3-1.9,0.9
		c-0.4,0.6-0.6,1.5-0.6,2.8v20.4H53.8V457H63.7z"/>
	<path d="M107.1,478.3c-0.3,1.9-0.9,3.7-1.8,5.2c-0.9,1.5-2.2,2.7-3.9,3.6c-1.7,0.9-4,1.3-6.9,1.3c-3,0-5.4-0.4-7.1-1.2
		c-1.7-0.8-3.1-2-3.9-3.4c-0.9-1.5-1.4-3.2-1.7-5.1c-0.2-2-0.4-4.1-0.4-6.3c0-2,0.1-4,0.4-5.9c0.3-1.9,0.9-3.7,1.8-5.2
		c0.9-1.5,2.2-2.7,3.9-3.7c1.7-0.9,4-1.4,6.9-1.4c3,0,5.4,0.4,7.1,1.3c1.7,0.9,3.1,2,3.9,3.5c0.9,1.5,1.4,3.2,1.7,5.2
		c0.2,2,0.4,4,0.4,6.3C107.5,474.4,107.3,476.4,107.1,478.3 M91.7,477.1c0.1,1.2,0.2,2.2,0.5,2.9c0.2,0.7,0.5,1.2,0.9,1.5
		c0.4,0.3,0.8,0.4,1.4,0.4c0.6,0,1-0.1,1.4-0.4c0.4-0.3,0.7-0.8,0.9-1.5c0.2-0.7,0.4-1.7,0.4-2.9c0.1-1.2,0.1-2.8,0.1-4.7
		c0-1.9,0-3.5-0.1-4.8c-0.1-1.3-0.2-2.2-0.4-3c-0.2-0.7-0.5-1.2-0.9-1.5c-0.4-0.3-0.9-0.4-1.4-0.4c-0.6,0-1,0.1-1.4,0.4
		c-0.4,0.3-0.7,0.8-0.9,1.5c-0.2,0.7-0.4,1.7-0.5,3c-0.1,1.2-0.1,2.8-0.1,4.8C91.6,474.3,91.6,475.9,91.7,477.1"/>
	<polygon points="117.4,457 120,479.1 120.1,479.1 123.1,457 134,457 137,479.1 137.2,479.1 139.7,457 149.6,457 143.4,487.8 
		131.8,487.8 128.6,466 128.5,466 125.4,487.8 113.8,487.8 107.5,457 	"/>
	<polygon points="168.7,457 171.2,479.1 171.3,479.1 174.3,457 185.3,457 188.3,479.1 188.4,479.1 191,457 200.9,457 194.6,487.8 
		183,487.8 179.9,466 179.8,466 176.6,487.8 165,487.8 158.7,457 	"/>
	<path d="M212,447.1v13.2h0.1c0.9-1.6,2-2.7,3.3-3.3c1.3-0.6,2.6-0.9,3.8-0.9c1.1,0,2.1,0.1,3,0.4c1,0.3,1.8,0.7,2.6,1.4
		c0.7,0.6,1.3,1.5,1.8,2.6c0.4,1.1,0.7,2.4,0.7,4v23.2H217v-20.4c0-1.3-0.2-2.2-0.6-2.8c-0.4-0.6-1-0.9-1.9-0.9
		c-0.9,0-1.6,0.3-1.9,0.9c-0.4,0.6-0.6,1.5-0.6,2.8v20.4h-10.2v-40.6H212z"/>
	<path d="M246,486.1c-0.1-0.6-0.1-1.2-0.2-1.8h-0.1c-0.6,1.4-1.5,2.4-2.7,3.1c-1.2,0.7-2.6,1-4.2,1c-1.6,0-2.9-0.2-4-0.6
		c-1.1-0.4-2-1-2.7-1.8c-0.7-0.8-1.2-1.8-1.5-2.8c-0.3-1.1-0.5-2.3-0.5-3.7c0-1.4,0.1-2.7,0.4-3.8c0.3-1.1,0.7-2,1.4-2.8
		c0.7-0.8,1.5-1.4,2.6-2c1.1-0.5,2.5-1,4.1-1.4l4-1c1.1-0.3,1.9-0.7,2.3-1.2c0.5-0.5,0.7-1.2,0.7-2.2c0-1.9-0.9-2.9-2.6-2.9
		c-1,0-1.7,0.3-2.2,0.8c-0.5,0.6-0.7,1.7-0.7,3.3h-8.8c0-2.2,0.4-4,1.2-5.4c0.8-1.3,1.8-2.4,3-3.1c1.2-0.7,2.4-1.2,3.8-1.5
		c1.4-0.2,2.6-0.4,3.8-0.4c1.8,0,3.4,0.1,4.9,0.4c1.5,0.3,2.8,0.8,3.9,1.5c1.1,0.7,1.9,1.7,2.5,3c0.6,1.3,0.9,2.9,0.9,4.9v15
		c0,1.4,0.1,2.7,0.2,3.8c0.1,1.1,0.4,2.1,0.8,2.8h-9.9C246.2,487.2,246,486.7,246,486.1 M245,480.4c0.5-0.8,0.7-2.1,0.7-3.8v-3.7
		h-0.1c-0.3,0.4-0.8,0.7-1.4,0.8c-0.6,0.1-1.3,0.3-2.1,0.7c-0.8,0.4-1.3,0.9-1.6,1.5c-0.3,0.6-0.5,1.5-0.5,2.5c0,1,0.2,1.8,0.7,2.5
		c0.5,0.6,1.1,0.9,1.8,0.9C243.7,481.7,244.5,481.3,245,480.4"/>
	<path d="M260.5,457v-9.1h10.2v9.1h4v6.9h-4v14.7c0,0.9,0.2,1.5,0.6,1.9c0.4,0.4,1,0.5,1.9,0.5h1.6v6.8c-1,0-1.9,0-2.8,0.1
		c-1,0-1.9,0.1-2.7,0.1c-1.6,0-2.9-0.1-4-0.2c-1.1-0.1-2-0.5-2.7-1c-0.7-0.5-1.2-1.3-1.5-2.4c-0.3-1-0.5-2.4-0.5-4.1v-16.3h-3.4V457
		H260.5z"/>
	<path d="M284.8,447.1v9.1c0,3.3-0.7,5.7-2,7.3c-1.3,1.6-3.5,2.4-6.5,2.5v-4.3c1.2-0.1,2.1-0.5,2.5-1.2c0.5-0.7,0.7-1.7,0.7-3v-0.6
		h-3.2v-9.7H284.8z"/>
	<path d="M293.5,479.7c0.1,0.5,0.3,1,0.6,1.3c0.5,0.7,1.2,1.1,2.2,1.1c0.8,0,1.5-0.2,2.1-0.7c0.6-0.5,0.9-1.1,0.9-2
		c0-0.9-0.4-1.6-1.1-2.1c-0.8-0.5-1.7-0.9-2.8-1.3c-1.1-0.4-2.3-0.8-3.6-1.2c-1.3-0.4-2.5-1-3.6-1.7c-1.1-0.7-2.1-1.7-2.8-2.9
		c-0.8-1.2-1.1-2.8-1.1-4.8c0-1.4,0.2-2.7,0.7-3.8c0.5-1.2,1.3-2.2,2.3-3.1c1-0.9,2.3-1.6,3.9-2.1c1.6-0.5,3.4-0.8,5.5-0.8
		c7.8,0,11.8,3.3,11.8,9.8h-9c0-1.3-0.2-2.3-0.7-2.7c-0.5-0.5-1.2-0.7-2.1-0.7c-0.8,0-1.4,0.2-1.9,0.6c-0.5,0.4-0.8,1-0.8,1.8
		c0,0.9,0.4,1.5,1.1,2c0.7,0.4,1.7,0.8,2.8,1.2c1.1,0.4,2.3,0.7,3.6,1.1c1.3,0.4,2.5,0.9,3.6,1.6c1.1,0.7,2.1,1.7,2.8,2.9
		c0.8,1.2,1.1,2.8,1.1,4.8c0,1.5-0.3,3-0.9,4.2c-0.6,1.3-1.4,2.4-2.5,3.3c-1.1,0.9-2.4,1.6-3.9,2.1c-1.6,0.5-3.3,0.7-5.3,0.7
		c-4.4,0-7.5-0.9-9.4-2.6c-1.9-1.7-2.9-4.3-2.9-7.8h9.2C293.3,478.6,293.4,479.2,293.5,479.7"/>
	<path d="M337,432.5v18.1h0.2c0.7-2.2,1.9-3.7,3.5-4.5c1.6-0.9,3.4-1.3,5.3-1.3c2,0,3.8,0.4,5.4,1c1.6,0.7,3,1.9,4,3.5
		c1.1,1.6,1.9,3.8,2.5,6.5c0.6,2.7,0.9,6.1,0.9,10.1c0,7.8-0.9,13.5-2.8,17.2c-1.9,3.7-5.1,5.5-9.8,5.5c-2.5,0-4.5-0.5-6-1.6
		c-1.5-1-2.7-2.7-3.6-5h-0.2v5.7H323v-55.2H337z M337.1,472.5c0.1,1.5,0.3,2.7,0.6,3.6c0.3,0.9,0.7,1.5,1.2,1.9
		c0.5,0.4,1.2,0.5,1.9,0.5c0.8,0,1.5-0.2,2-0.5c0.5-0.4,0.9-1,1.2-1.9c0.3-0.9,0.5-2.1,0.6-3.6c0.1-1.5,0.1-3.4,0.1-5.6
		c0-2.3-0.1-4.2-0.1-5.7c-0.1-1.5-0.3-2.7-0.6-3.6c-0.3-0.9-0.7-1.5-1.2-1.9c-0.5-0.4-1.2-0.5-2-0.5c-0.8,0-1.4,0.2-1.9,0.5
		c-0.5,0.4-0.9,1-1.2,1.9c-0.3,0.9-0.5,2.1-0.6,3.6c-0.1,1.5-0.1,3.4-0.1,5.7C337,469.1,337,471,337.1,472.5"/>
	<path d="M375.8,474.7c0,2.3,0.4,3.8,1.2,4.6c0.8,0.8,1.6,1.1,2.6,1.1c1.2,0,2.2-0.5,2.9-1.5c0.7-1,1-2.9,1-5.8H396
		c-0.1,5.2-1.4,9-3.9,11.7c-2.5,2.6-6.7,3.9-12.4,3.9c-3.4,0-6.2-0.4-8.4-1.1c-2.3-0.7-4.1-2-5.5-3.7c-1.4-1.7-2.4-4-3-6.8
		c-0.6-2.8-0.9-6.2-0.9-10.2c0-4,0.3-7.4,1-10.2c0.7-2.8,1.7-5.1,3.2-6.8c1.4-1.8,3.3-3,5.5-3.8c2.2-0.8,4.9-1.2,8.1-1.2
		c2.8,0,5.2,0.3,7.3,1c2.1,0.7,3.8,1.8,5.3,3.4c1.4,1.6,2.5,3.6,3.2,6.2c0.7,2.5,1,5.7,1,9.5v4.2h-20.6V474.7z M382.6,454.8
		c-0.5-1-1.5-1.6-3-1.6c-1.4,0-2.4,0.5-2.9,1.6c-0.5,1-0.8,2.7-0.8,4.9v1.9h7.5v-1.9C383.4,457.5,383.1,455.9,382.6,454.8"/>
	<rect x="399.6" y="432.5" width="14" height="55.2"/>
	<path d="M451.7,475c-0.4,2.6-1.2,5-2.4,7c-1.2,2-3,3.7-5.4,4.9c-2.4,1.2-5.5,1.8-9.4,1.8c-4.1,0-7.3-0.6-9.7-1.7
		c-2.4-1.1-4.2-2.7-5.4-4.6c-1.2-2-1.9-4.3-2.3-7c-0.3-2.7-0.5-5.5-0.5-8.6c0-2.7,0.2-5.4,0.6-8.1c0.4-2.6,1.2-5,2.4-7.1
		c1.2-2.1,3-3.7,5.4-5c2.4-1.3,5.5-1.9,9.4-1.9c4.1,0,7.3,0.6,9.7,1.7c2.4,1.2,4.2,2.8,5.4,4.8c1.2,2,1.9,4.4,2.3,7
		c0.3,2.7,0.5,5.5,0.5,8.6C452.3,469.6,452.1,472.3,451.7,475 M430.7,473.4c0.1,1.7,0.3,3,0.6,4c0.3,1,0.7,1.7,1.2,2
		c0.5,0.4,1.1,0.5,1.9,0.5c0.8,0,1.4-0.2,1.9-0.5c0.5-0.4,0.9-1,1.2-2c0.3-1,0.5-2.3,0.6-4c0.1-1.7,0.2-3.8,0.2-6.5
		c0-2.6-0.1-4.8-0.2-6.5c-0.1-1.7-0.3-3.1-0.6-4c-0.3-1-0.7-1.7-1.2-2c-0.5-0.4-1.2-0.5-1.9-0.5c-0.8,0-1.4,0.2-1.9,0.5
		c-0.5,0.4-0.9,1-1.2,2c-0.3,1-0.5,2.3-0.6,4c-0.1,1.7-0.1,3.9-0.1,6.5C430.6,469.5,430.6,471.7,430.7,473.4"/>
	<polygon points="465.6,445.9 469.1,476 469.3,476 473.4,445.9 488.2,445.9 492.3,476 492.5,476 496,445.9 509.5,445.9 500.9,487.8 
		485.2,487.8 480.9,458.1 480.7,458.1 476.5,487.8 460.7,487.8 452.2,445.9 	"/>
	<rect x="506.4" y="474.1" width="11.5" height="13.6"/>
	<path d="M154.1,144.4c-0.1,6.9,0.4,25.4,9.8,40.1c-11.6,17.4-11.7,38.4-11.7,48.6c0,13.9,2.8,27.1,8,37.3c-6.9,4.5-7.9,10.7-8,13.3
		c-9.3,3.5-15.5,12.2-15.5,22.2v23.2c0,12.3,9.3,22.1,21.4,23.7c114.8,14.9,120.4,66.3,171.9,66.3c58,0,56.6-47.7,132.3-60.3
		c11.5-1.9,20.3-11.8,20.3-23.5v-23.3c0-9.2-5.2-16-10.3-19.5c-0.7-6.3-5.1-17.6-17.8-20.8V103.2c0-13.1-10.7-23.8-23.8-23.8h-35.3
		c-12.6,0-18.9,9.1-21.7,13.6c-3.9-8.2-12.1-13.6-21.4-13.6h-35.3c-16.6,0-20.8,15.1-26.1,19.1c-13.1-17.3-33.8-26.2-61.7-26.2
		C181.7,72.4,154.3,98.6,154.1,144.4"/>
	<path class="st0" d="M176,232.8c-0.1,16.6,4.1,28.7,12.8,37.1c8.9,8.6,22.1,12.7,40.5,12.7c35.5,0,52.9-16.1,53-49.2
		c0-8.2-0.3-16.8-2.6-24.6c-3-10.1-9.4-19-22.3-24.3c20.7-6.2,23.7-23.3,23.8-39.3c0-7.3-0.8-13.7-2.4-19.4
		c-2.1-7-5.5-12.7-10.2-17.3c-8.7-8.4-21.5-12.4-39.1-12.4c-34.5,0-51.3,15.8-51.5,48.4c0,7.5,0.7,13.6,2.2,18.7
		c1.3,4.6,3.4,8.3,6.1,11.5c3.7,4.4,8.7,7.4,15.1,9.4C180.4,192.5,176.1,209,176,232.8 M229.2,123.6c3.5,0,6.5,1.2,8.9,3.4
		c3.9,3.8,5.9,10.6,5.9,20.2c0,5.9-0.1,23.7-14.3,23.7c-3.6,0-6.6-1.1-8.9-3.4c-5.3-5.1-5.9-14.4-5.8-20.9
		C215,131.6,219.9,123.6,229.2,123.6 M213.1,229.4c0-10.5,0.1-30.2,15.8-30.2c3.9,0,7.2,1.2,9.8,3.7c6.5,6.3,6.5,18.8,6.4,27l0,0.9
		c-0.1,16.1-5.2,24-15.8,24c-4.2,0-7.6-1.3-10.2-3.8c-5.4-5.2-6-14.4-6-20.8V229.4z"/>
	<path class="st1" d="M307.2,163.9V259c6.6-4.4,38.8-4.4,45.3,0V103.2h-35.3c-1.8,3.8-5.4,8.4-10.2,12.9
		c-5.2,4.8-10.9,9.4-18.1,12.3v37.7C294.1,166.8,300.5,165.7,307.2,163.9"/>
	<path class="st1" d="M268.4,108.5c-8.7-8.4-21.5-12.4-39.1-12.4c-34.5,0-51.3,15.8-51.5,48.4c0,7.5,0.7,13.6,2.2,18.7
		c1.4,4.6,3.4,8.3,6.1,11.5c3.7,4.4,8.7,7.4,15.1,9.5c-20.8,8.3-25.2,24.8-25.3,48.6c-0.1,16.6,4.1,28.7,12.8,37.1
		c8.9,8.6,22.1,12.7,40.5,12.7c35.5,0,52.9-16.1,53-49.2c0-8.2-0.3-16.8-2.6-24.7c-3-10.1-9.4-19-22.3-24.3
		c20.7-6.2,23.7-23.3,23.8-39.3c0-7.3-0.8-13.7-2.4-19.4C276.6,118.8,273.2,113.1,268.4,108.5 M245.1,230l0,0.9
		c-0.1,16.1-5.2,24-15.8,24c-4.2,0-7.6-1.3-10.2-3.8c-5.4-5.2-6-14.4-6-20.8v-0.9c0-10.5,0.1-30.2,15.8-30.2c3.9,0,7.2,1.3,9.8,3.7
		C245.3,209.3,245.2,221.8,245.1,230 M244,147.2c0,5.9-0.1,23.7-14.3,23.7c-3.6,0-6.6-1.1-8.9-3.4c-5.3-5.1-5.9-14.4-5.8-20.9
		c0.1-15,5-23,14.3-23c3.6,0,6.5,1.1,8.9,3.4C242.1,130.8,244,137.6,244,147.2"/>
	<path class="st1" d="M395.7,103.2c-1.8,3.8-5.4,8.4-10.2,12.9c-5.2,4.8-12,9.4-19.1,12.3v37.7c5.2,0.6,12.6-0.4,19.3-2.3v116.8H431
		V103.2H395.7z"/>
	<path class="st2" d="M387,344.6c3.9-17.6,12.3-37.3,20.8-47.8h41.1C416.5,306.4,397,329.4,387,344.6"/>
	<path class="st2" d="M272.1,344.6c-8-19.9-18.1-35.7-31.5-47.8h-54C228.2,307.6,256,326.3,272.1,344.6"/>
	<path class="st3" d="M365.4,392c20.8-36.7,61.4-71.7,93.6-76.9v23.3C417.5,344.6,385.2,369.2,365.4,392"/>
	<path class="st3" d="M302.2,392c-31.4-36.7-85.7-74.8-141.7-83v23.3C223.3,338.5,272.3,369.2,302.2,392"/>
	<path class="st4" d="M385.7,280.7h-33.2v-11.3c-6.6-4.4-38.6-4.4-45.2,0v11.3H274c0,49.7,12,95.8,55.8,111.3v0c0,0,0,0,0,0
		c0,0,0,0,0,0v0C374.1,376.5,385.7,330.4,385.7,280.7"/>
	<path class="st5" d="M315.4,276.1c0,0-0.4,26.2,11.2,43.9c-2.7-15.6-3.2-26.8-3.3-44.8C319.6,274.8,315.4,276.1,315.4,276.1"/>
	<path class="st5" d="M330.2,369.8l-0.1,10.1c0,0,30.1-15.1,36.9-37.3C358.1,353.2,345.8,365.5,330.2,369.8"/>
	<path d="M478.1,267.2c-1.9,1.8-4.2,2.8-6.8,2.8c-2.7,0-5.1-0.9-6.9-2.8c-1.9-1.9-2.8-4.2-2.8-6.9c0-2.8,1-5.2,3-7.1
		c1.9-1.8,4.1-2.6,6.7-2.6c2.7,0,5,1,6.9,2.9c1.9,1.9,2.9,4.2,2.9,6.9C481,263,480,265.3,478.1,267.2 M465.5,254.6
		c-1.5,1.6-2.3,3.5-2.3,5.7c0,2.3,0.8,4.2,2.4,5.8c1.6,1.6,3.5,2.4,5.7,2.4c2.2,0,4.1-0.8,5.7-2.4c1.6-1.6,2.3-3.5,2.3-5.7
		c0-2.2-0.8-4.1-2.3-5.7c-1.6-1.6-3.5-2.4-5.7-2.4C469,252.1,467.1,253,465.5,254.6 M467,265.7v-10.8c0.7,0,1.7,0,3,0
		c1.3,0,2.1,0,2.2,0c0.9,0.1,1.6,0.2,2.1,0.5c1,0.5,1.4,1.4,1.4,2.6c0,0.9-0.3,1.6-0.8,2c-0.5,0.4-1.1,0.7-1.9,0.7
		c0.7,0.1,1.2,0.4,1.5,0.6c0.6,0.5,0.9,1.3,0.9,2.4v1c0,0.1,0,0.2,0,0.3c0,0.1,0,0.2,0.1,0.3l0.1,0.3h-2.7c-0.1-0.3-0.1-0.8-0.2-1.5
		c0-0.6-0.1-1.1-0.2-1.3c-0.1-0.4-0.4-0.6-0.8-0.8c-0.2-0.1-0.5-0.1-1-0.2l-0.6,0h-0.6v3.8H467z M472.1,257
		c-0.4-0.1-0.9-0.2-1.6-0.2h-0.7v3.2h1.1c0.7,0,1.2-0.1,1.5-0.4c0.4-0.3,0.5-0.7,0.5-1.3C473,257.6,472.7,257.2,472.1,257"/>
</g>
</svg>
