<svg xmlns="http://www.w3.org/2000/svg" viewBox="0 0 32 32">
  <!-- Background -->
  <rect width="32" height="32" rx="7" fill="#1565c0"/>
  <!-- Flame shape -->
  <path d="M16 26
    C10 26 7 21 7 17
    C7 13 10 10 12 8
    C12 11 13 12 14 12
    C13 9 14 6 16 4
    C17 7 17 9 17 11
    C18 9 19 7 20 6
    C21 9 21 12 19 15
    C20 14 21 13 22 13
    C23 16 22 21 19 24
    C18.5 25.2 17.3 26 16 26Z"
    fill="#ffcc02"/>
  <!-- Inner flame highlight -->
  <path d="M16 23
    C13 23 11.5 20 12 17.5
    C12.5 15.5 14 14 15 13.5
    C15 15 15.5 16 16 16
    C15.5 14.5 16 13 17 12
    C17.5 14 17 16 16.5 17
    C17.5 16 18.5 15 19 15
    C19.5 17.5 18.5 21.5 16 23Z"
    fill="#e53935" opacity="0.75"/>
</svg>
